<?xml version="1.0" encoding="UTF-8" standalone="no"?>
<!DOCTYPE svg PUBLIC "-//W3C//DTD SVG 1.1//EN"
 "http://www.w3.org/Graphics/SVG/1.1/DTD/svg11.dtd">
<!-- Generated by graphviz version 2.40.1 (20161225.0304)
 -->
<!-- Title: Polite.AI bot room dialogue states Pages: 1 -->
<svg width="1449pt" height="244pt"
 viewBox="0.00 0.00 1449.00 244.00" xmlns="http://www.w3.org/2000/svg" xmlns:xlink="http://www.w3.org/1999/xlink">
<g id="graph0" class="graph" transform="scale(1 1) rotate(0) translate(4 240)">
<title>Polite.AI bot room dialogue states</title>
<polygon fill="#ffffff" stroke="transparent" points="-4,4 -4,-240 1445.003,-240 1445.003,4 -4,4"/>
<!-- start -->
<g id="node1" class="node">
<title>start</title>
<ellipse fill="none" stroke="#ff0000" cx="696.3233" cy="-218" rx="27" ry="18"/>
<text text-anchor="middle" x="696.3233" y="-213.8" font-family="Times,serif" font-size="14.00" fill="#000000">start</text>
</g>
<!-- main -->
<g id="node2" class="node">
<title>main</title>
<ellipse fill="none" stroke="#000000" cx="696.3233" cy="-118" rx="27.5804" ry="18"/>
<text text-anchor="middle" x="696.3233" y="-113.8" font-family="Times,serif" font-size="14.00" fill="#000000">main</text>
</g>
<!-- start&#45;&gt;main -->
<g id="edge1" class="edge">
<title>start&#45;&gt;main</title>
<path fill="none" stroke="#000000" d="M671.873,-210.1999C658.6812,-204.5998 643.5562,-195.5998 635.8233,-182 629.6721,-171.1821 629.6721,-164.8179 635.8233,-154 641.7108,-143.6457 651.8831,-135.9578 662.2249,-130.4067"/>
<polygon fill="#000000" stroke="#000000" points="663.7579,-133.5532 671.2532,-126.0651 660.7243,-127.2447 663.7579,-133.5532"/>
<text text-anchor="middle" x="687.0733" y="-170.8" font-family="Times,serif" font-size="14.00" fill="#000000">Action: joinRoom</text>
<text text-anchor="middle" x="687.0733" y="-156.8" font-family="Times,serif" font-size="14.00" fill="#000000">Say: join</text>
</g>
<!-- start&#45;&gt;main -->
<g id="edge2" class="edge">
<title>start&#45;&gt;main</title>
<path fill="none" stroke="#000000" d="M716.4936,-205.8167C724.5531,-199.7637 732.9477,-191.6649 737.3233,-182 742.4558,-170.6633 742.4558,-165.3367 737.3233,-154 734.4359,-147.6223 729.7985,-141.9267 724.6622,-137.0507"/>
<polygon fill="#000000" stroke="#000000" points="726.8218,-134.2933 716.9257,-130.5095 722.3023,-139.6388 726.8218,-134.2933"/>
<text text-anchor="middle" x="798.2906" y="-170.8" font-family="Times,serif" font-size="14.00" fill="#000000">Action: reJoinRoom</text>
<text text-anchor="middle" x="798.2906" y="-156.8" font-family="Times,serif" font-size="14.00" fill="#000000">Say: rejoin</text>
</g>
<!-- main&#45;&gt;main -->
<g id="edge6" class="edge">
<title>main&#45;&gt;main</title>
<path fill="none" stroke="#000000" d="M723.5882,-122.6772C733.7489,-122.8306 742.1127,-121.2715 742.1127,-118 742.1127,-115.9553 738.8456,-114.5796 733.9146,-113.8727"/>
<polygon fill="#000000" stroke="#000000" points="733.7602,-110.3596 723.5882,-113.3228 733.3879,-117.3497 733.7602,-110.3596"/>
<text text-anchor="middle" x="792.0663" y="-120.8" font-family="Times,serif" font-size="14.00" fill="#000000">Action: agree</text>
<text text-anchor="middle" x="792.0663" y="-106.8" font-family="Times,serif" font-size="14.00" fill="#000000">Say: agreeThanks</text>
</g>
<!-- main&#45;&gt;main -->
<g id="edge7" class="edge">
<title>main&#45;&gt;main</title>
<path fill="none" stroke="#000000" d="M722.3807,-124.3673C765.6915,-129.9125 842.0199,-127.79 842.0199,-118 842.0199,-108.9366 776.6011,-106.4448 732.5251,-110.5247"/>
<polygon fill="#000000" stroke="#000000" points="731.9416,-107.0675 722.3807,-111.6327 732.7016,-114.0261 731.9416,-107.0675"/>
<text text-anchor="middle" x="890.4286" y="-113.8" font-family="Times,serif" font-size="14.00" fill="#000000">Action: smalltalk</text>
</g>
<!-- confirmRoomType -->
<g id="node3" class="node">
<title>confirmRoomType</title>
<ellipse fill="none" stroke="#000000" cx="169.3233" cy="-18" rx="76.583" ry="18"/>
<text text-anchor="middle" x="169.3233" y="-13.8" font-family="Times,serif" font-size="14.00" fill="#000000">confirmRoomType</text>
</g>
<!-- main&#45;&gt;confirmRoomType -->
<g id="edge3" class="edge">
<title>main&#45;&gt;confirmRoomType</title>
<path fill="none" stroke="#000000" d="M668.2816,-117.5977C542.0646,-115.6529 31.7907,-106.3053 8.7247,-82 -21.1316,-50.5397 33.8905,-34.2041 87.4805,-25.9424"/>
<polygon fill="#000000" stroke="#000000" points="88.0577,-29.3953 97.4495,-24.4918 87.0497,-22.4683 88.0577,-29.3953"/>
<text text-anchor="middle" x="78.6226" y="-70.8" font-family="Times,serif" font-size="14.00" fill="#000000">Action: heardRoomType</text>
<text text-anchor="middle" x="78.6226" y="-56.8" font-family="Times,serif" font-size="14.00" fill="#000000">Say: confirmRoomType</text>
</g>
<!-- confirmSimpleChallenge -->
<g id="node4" class="node">
<title>confirmSimpleChallenge</title>
<ellipse fill="none" stroke="#000000" cx="696.3233" cy="-18" rx="98.5571" ry="18"/>
<text text-anchor="middle" x="696.3233" y="-13.8" font-family="Times,serif" font-size="14.00" fill="#000000">confirmSimpleChallenge</text>
</g>
<!-- main&#45;&gt;confirmSimpleChallenge -->
<g id="edge4" class="edge">
<title>main&#45;&gt;confirmSimpleChallenge</title>
<path fill="none" stroke="#000000" d="M668.5761,-116.9422C620.8307,-114.4754 526.2885,-106.5401 505.9541,-82 498.0141,-72.4177 498.0141,-63.5823 505.9541,-54 517.873,-39.616 555.287,-30.9368 593.8285,-25.7198"/>
<polygon fill="#000000" stroke="#000000" points="594.6929,-29.138 604.1706,-24.4025 593.8084,-22.1941 594.6929,-29.138"/>
<text text-anchor="middle" x="590.5079" y="-70.8" font-family="Times,serif" font-size="14.00" fill="#000000">Action: heardChallenge</text>
<text text-anchor="middle" x="590.5079" y="-56.8" font-family="Times,serif" font-size="14.00" fill="#000000">Say: confirmSimpleChallenge</text>
</g>
<!-- confirmSimpleReport -->
<g id="node5" class="node">
<title>confirmSimpleReport</title>
<ellipse fill="none" stroke="#000000" cx="1194.3233" cy="-18" rx="86.9896" ry="18"/>
<text text-anchor="middle" x="1194.3233" y="-13.8" font-family="Times,serif" font-size="14.00" fill="#000000">confirmSimpleReport</text>
</g>
<!-- main&#45;&gt;confirmSimpleReport -->
<g id="edge5" class="edge">
<title>main&#45;&gt;confirmSimpleReport</title>
<path fill="none" stroke="#000000" d="M724.314,-116.4677C787.6565,-112.6913 940.1404,-101.778 987.3233,-82 1005.787,-74.2604 1004.4851,-62.5042 1022.6094,-54 1048.7647,-41.7276 1079.1112,-33.6073 1106.9524,-28.247"/>
<polygon fill="#000000" stroke="#000000" points="1107.8766,-31.6362 1117.084,-26.3945 1106.6175,-24.7503 1107.8766,-31.6362"/>
<text text-anchor="middle" x="1098.1802" y="-70.8" font-family="Times,serif" font-size="14.00" fill="#000000">Action: heardReport</text>
<text text-anchor="middle" x="1098.1802" y="-56.8" font-family="Times,serif" font-size="14.00" fill="#000000">Say: confirmSimpleReport</text>
</g>
<!-- confirmRoomType&#45;&gt;main -->
<g id="edge8" class="edge">
<title>confirmRoomType&#45;&gt;main</title>
<path fill="none" stroke="#000000" d="M163.6433,-36.1875C160.4033,-50.5376 158.9496,-70.063 170.2627,-82 187.0344,-99.6965 540.3041,-112.8735 658.3176,-116.7953"/>
<polygon fill="#000000" stroke="#000000" points="658.2347,-120.2944 668.3444,-117.125 658.4648,-113.2982 658.2347,-120.2944"/>
<text text-anchor="middle" x="245.8536" y="-70.8" font-family="Times,serif" font-size="14.00" fill="#000000">Action: confirmRoomType</text>
<text text-anchor="middle" x="245.8536" y="-56.8" font-family="Times,serif" font-size="14.00" fill="#000000">Say: confirmedRoomType</text>
</g>
<!-- confirmRoomType&#45;&gt;main -->
<g id="edge9" class="edge">
<title>confirmRoomType&#45;&gt;main</title>
<path fill="none" stroke="#000000" d="M235.3403,-27.3412C262.8232,-32.812 294.5082,-41.2423 321.3233,-54 339.7567,-62.77 338.7801,-74.414 357.7315,-82 411.5886,-103.5584 581.8846,-113.2207 658.4215,-116.5559"/>
<polygon fill="#000000" stroke="#000000" points="658.4381,-120.0597 668.577,-116.9851 658.7338,-113.0659 658.4381,-120.0597"/>
<text text-anchor="middle" x="427.6192" y="-70.8" font-family="Times,serif" font-size="14.00" fill="#000000">Action: rejectRoomType</text>
<text text-anchor="middle" x="427.6192" y="-56.8" font-family="Times,serif" font-size="14.00" fill="#000000">Say: rejectedRoomType</text>
</g>
<!-- confirmSimpleChallenge&#45;&gt;main -->
<g id="edge10" class="edge">
<title>confirmSimpleChallenge&#45;&gt;main</title>
<path fill="none" stroke="#000000" d="M696.3233,-36.2253C696.3233,-51.134 696.3233,-72.4782 696.3233,-89.6219"/>
<polygon fill="#000000" stroke="#000000" points="692.8234,-89.6584 696.3233,-99.6585 699.8234,-89.6585 692.8234,-89.6584"/>
<text text-anchor="middle" x="769.2251" y="-70.8" font-family="Times,serif" font-size="14.00" fill="#000000">Action: confirmChallenge</text>
<text text-anchor="middle" x="769.2251" y="-56.8" font-family="Times,serif" font-size="14.00" fill="#000000">Say: confirmedChallenge</text>
</g>
<!-- confirmSimpleChallenge&#45;&gt;main -->
<g id="edge11" class="edge">
<title>confirmSimpleChallenge&#45;&gt;main</title>
<path fill="none" stroke="#000000" d="M779.8466,-27.6613C824.683,-36.3763 866.4337,-52.5469 843.3233,-82 829.9603,-99.0305 772.8989,-109.052 733.9286,-114.0316"/>
<polygon fill="#000000" stroke="#000000" points="733.4615,-110.5625 723.9587,-115.2472 734.3088,-117.5111 733.4615,-110.5625"/>
<text text-anchor="middle" x="916.9908" y="-70.8" font-family="Times,serif" font-size="14.00" fill="#000000">Action: rejectChallenge</text>
<text text-anchor="middle" x="916.9908" y="-56.8" font-family="Times,serif" font-size="14.00" fill="#000000">Say: rejectedChallenge</text>
</g>
<!-- confirmSimpleReport&#45;&gt;main -->
<g id="edge12" class="edge">
<title>confirmSimpleReport&#45;&gt;main</title>
<path fill="none" stroke="#000000" d="M1193.3057,-36.2908C1191.4276,-51.1068 1186.272,-71.228 1172.3233,-82 1137.9654,-108.5331 840.9951,-115.7491 734.297,-117.4947"/>
<polygon fill="#000000" stroke="#000000" points="734.2316,-113.9952 724.2877,-117.6514 734.3413,-120.9944 734.2316,-113.9952"/>
<text text-anchor="middle" x="1252.8975" y="-70.8" font-family="Times,serif" font-size="14.00" fill="#000000">Action: confirmReport</text>
<text text-anchor="middle" x="1252.8975" y="-56.8" font-family="Times,serif" font-size="14.00" fill="#000000">Say: confirmedReport</text>
</g>
<!-- confirmSimpleReport&#45;&gt;main -->
<g id="edge13" class="edge">
<title>confirmSimpleReport&#45;&gt;main</title>
<path fill="none" stroke="#000000" d="M1261.101,-29.5436C1287.1258,-35.5213 1312.5827,-43.7381 1320.3233,-54 1327.8173,-63.935 1328.8657,-72.9506 1320.3233,-82 1300.1299,-103.392 866.3033,-114.3759 734.1755,-117.2335"/>
<polygon fill="#000000" stroke="#000000" points="734.0421,-113.7354 724.119,-117.4478 734.1913,-120.7338 734.0421,-113.7354"/>
<text text-anchor="middle" x="1383.6631" y="-70.8" font-family="Times,serif" font-size="14.00" fill="#000000">Action: rejectReport</text>
<text text-anchor="middle" x="1383.6631" y="-56.8" font-family="Times,serif" font-size="14.00" fill="#000000">Say: rejectedReport</text>
</g>
</g>
</svg>
