<?xml version="1.0" encoding="UTF-8" standalone="no"?>
<!DOCTYPE svg PUBLIC "-//W3C//DTD SVG 1.1//EN"
 "http://www.w3.org/Graphics/SVG/1.1/DTD/svg11.dtd">
<!-- Generated by graphviz version 2.40.1 (20161225.0304)
 -->
<!-- Title: Snowman State Transitions Pages: 1 -->
<svg width="547pt" height="344pt"
 viewBox="0.00 0.00 546.81 344.00" xmlns="http://www.w3.org/2000/svg" xmlns:xlink="http://www.w3.org/1999/xlink">
<g id="graph0" class="graph" transform="scale(1 1) rotate(0) translate(4 340)">
<title>Snowman State Transitions</title>
<polygon fill="#ffffff" stroke="transparent" points="-4,4 -4,-340 542.8057,-340 542.8057,4 -4,4"/>
<!-- snow -->
<g id="node1" class="node">
<title>snow</title>
<ellipse fill="none" stroke="#ff0000" cx="195.0039" cy="-318" rx="28.5583" ry="18"/>
<text text-anchor="middle" x="195.0039" y="-313.8" font-family="Times,serif" font-size="14.00" fill="#000000">snow</text>
</g>
<!-- snowman -->
<g id="node2" class="node">
<title>snowman</title>
<ellipse fill="none" stroke="#000000" cx="44.0039" cy="-218" rx="44.0078" ry="18"/>
<text text-anchor="middle" x="44.0039" y="-213.8" font-family="Times,serif" font-size="14.00" fill="#000000">snowman</text>
</g>
<!-- snow&#45;&gt;snowman -->
<g id="edge1" class="edge">
<title>snow&#45;&gt;snowman</title>
<path fill="none" stroke="#000000" d="M166.1659,-315.7816C124.3963,-311.9018 50.2668,-302.2843 34.0176,-282 25.8069,-271.7505 27.1654,-257.5339 31.0712,-245.1026"/>
<polygon fill="#000000" stroke="#000000" points="34.3908,-246.2179 34.6156,-235.6255 27.8343,-243.7658 34.3908,-246.2179"/>
<text text-anchor="middle" x="108.4971" y="-270.8" font-family="Times,serif" font-size="14.00" fill="#000000">Action: build</text>
<text text-anchor="middle" x="108.4971" y="-256.8" font-family="Times,serif" font-size="14.00" fill="#000000">Say: lets build a snowman</text>
</g>
<!-- water -->
<g id="node3" class="node">
<title>water</title>
<ellipse fill="none" stroke="#000000" cx="195.0039" cy="-118" rx="29.9931" ry="18"/>
<text text-anchor="middle" x="195.0039" y="-113.8" font-family="Times,serif" font-size="14.00" fill="#000000">water</text>
</g>
<!-- snow&#45;&gt;water -->
<g id="edge2" class="edge">
<title>snow&#45;&gt;water</title>
<path fill="none" stroke="#000000" d="M195.0039,-299.8986C195.0039,-264.9585 195.0039,-187.9938 195.0039,-146.2533"/>
<polygon fill="#000000" stroke="#000000" points="198.504,-146.2046 195.0039,-136.2046 191.504,-146.2046 198.504,-146.2046"/>
<text text-anchor="middle" x="286.5781" y="-220.8" font-family="Times,serif" font-size="14.00" fill="#000000">Action: melt</text>
<text text-anchor="middle" x="286.5781" y="-206.8" font-family="Times,serif" font-size="14.00" fill="#000000">Say: oh no, it melted too quickly</text>
</g>
<!-- snowman&#45;&gt;water -->
<g id="edge3" class="edge">
<title>snowman&#45;&gt;water</title>
<path fill="none" stroke="#000000" d="M42.8849,-199.9421C43.0164,-185.6673 45.6095,-166.1797 57.1641,-154 70.6043,-139.8326 119.9111,-129.4454 155.7223,-123.5656"/>
<polygon fill="#000000" stroke="#000000" points="156.5556,-126.9773 165.8854,-121.9568 155.4611,-120.0634 156.5556,-126.9773"/>
<text text-anchor="middle" x="119.9238" y="-170.8" font-family="Times,serif" font-size="14.00" fill="#000000">Action: melt</text>
<text text-anchor="middle" x="119.9238" y="-156.8" font-family="Times,serif" font-size="14.00" fill="#000000">Say: help, I&#39;m melting</text>
</g>
<!-- clouds -->
<g id="node4" class="node">
<title>clouds</title>
<ellipse fill="none" stroke="#000000" cx="300.0039" cy="-18" rx="33.3925" ry="18"/>
<text text-anchor="middle" x="300.0039" y="-13.8" font-family="Times,serif" font-size="14.00" fill="#000000">clouds</text>
</g>
<!-- water&#45;&gt;clouds -->
<g id="edge4" class="edge">
<title>water&#45;&gt;clouds</title>
<path fill="none" stroke="#000000" d="M207.2118,-101.5089C217.6496,-87.9695 233.4848,-68.7007 249.5088,-54 255.7006,-48.3195 262.8104,-42.7566 269.7028,-37.7675"/>
<polygon fill="#000000" stroke="#000000" points="272.0519,-40.3952 278.2316,-31.7893 268.034,-34.6631 272.0519,-40.3952"/>
<text text-anchor="middle" x="320.2515" y="-70.8" font-family="Times,serif" font-size="14.00" fill="#000000">Action: evaporate</text>
<text text-anchor="middle" x="320.2515" y="-56.8" font-family="Times,serif" font-size="14.00" fill="#000000">Say: it&#39;s very warm today</text>
</g>
<!-- clouds&#45;&gt;snow -->
<g id="edge5" class="edge">
<title>clouds&#45;&gt;snow</title>
<path fill="none" stroke="#000000" d="M330.0547,-25.8027C354.0073,-32.7013 384.7038,-43.3044 392.0039,-54 437.6728,-120.9113 428.4917,-169.6551 382.0039,-236 347.7284,-284.9163 277.5645,-304.9635 233.6016,-312.9532"/>
<polygon fill="#000000" stroke="#000000" points="232.8415,-309.532 223.5654,-314.651 234.0092,-316.434 232.8415,-309.532"/>
<text text-anchor="middle" x="479.4048" y="-170.8" font-family="Times,serif" font-size="14.00" fill="#000000">Action: snowing</text>
<text text-anchor="middle" x="479.4048" y="-156.8" font-family="Times,serif" font-size="14.00" fill="#000000">Say: hey it&#39;s snowing</text>
</g>
</g>
</svg>
